<?xml version="1.0" encoding="UTF-8"?>
<svg width="1440px" height="1024px" viewBox="0 0 1440 1024" version="1.1" xmlns="http://www.w3.org/2000/svg" xmlns:xlink="http://www.w3.org/1999/xlink">
    <!-- Generator: Sketch 61.2 (89653) - https://sketch.com -->
    <title>Desktop HD</title>
    <desc>Created with Sketch.</desc>
    <defs>
        <linearGradient x1="50%" y1="30.8815798%" x2="88.6147354%" y2="85.8140086%" id="linearGradient-1">
            <stop stop-color="#FA983A" offset="0%"></stop>
            <stop stop-color="#F6B93B" offset="100%"></stop>
            <stop stop-color="#3AB1FA" offset="100%"></stop>
        </linearGradient>
    </defs>
    <g id="Desktop-HD" stroke="none" stroke-width="1" fill="none" fill-rule="evenodd">
        <path d="M492.698533,-116.852756 C485.251955,-85.0858408 465.244689,-24.4235578 483.068848,22.4246264 C499.861716,66.562212 529.397842,187.072927 570.698069,213.029093 C592.528188,226.748781 629.40365,229.303243 654.568711,229.53481 C783.942078,230.725292 898.164002,205.278333 1000.05391,293.553581 C1009.54874,301.779706 1025.84253,327.052981 1029.66715,333.899996 C1069.50624,405.221803 1082.2849,456.842936 1119.43306,540.850734 C1146.87181,602.901409 1235.4488,766.42726 1326.00596,732.604037 C1416.56313,698.780813 1409.7286,620.661758 1572.39717,630.487349 C1576.11156,630.711707 1640.82097,728.23577 1645.66262,727.982774 C1721.45728,724.0222 1880.43992,693.749618 1888.23378,683.415476 C1968.20094,577.384301 1752.08853,520.061591 1755.56619,392.483665 C1756.31704,364.938849 1756.06765,337.369238 1755.56619,309.818806 C1755.39619,300.478722 1755.60445,290.98137 1753.55278,281.865706 C1731.82086,185.309604 1733.33445,205.856211 1707.7195,130.179857 C1688.10856,72.2416519 1652.01069,-114.878607 1567.94852,-160.293492 C1461.16844,-217.981804 1360.98323,-234.978527 1241.22831,-236.408973 C1187.71302,-237.048202 1134.17268,-237.764834 1080.67088,-236.408973 C1057.96905,-235.833656 978.659585,-225.819783 958.08637,-222.179908 C883.513277,-208.986209 761.623186,-186.766579 682.514854,-163.163355 C589.617687,-135.446013 472.014259,-94.1719041 383.015963,-53.6757043 C379.854753,-52.2372837 846.209415,-234.345382 1782.07995,-600" id="Path-2" fill="url(#linearGradient-1)" transform="translate(1144.500000, 68.580428) rotate(5.000000) translate(-1144.500000, -68.580428) "></path>
    </g>
</svg>